<svg version="1.1" id="Layer_1" xmlns="http://www.w3.org/2000/svg" xmlns:xlink="http://www.w3.org/1999/xlink" x="0px" y="0px"
	 width="100%" viewBox="0 0 832 576" enable-background="new 0 0 832 576" xml:space="preserve">
<path fill="#000000" opacity="1.000000" stroke="none" 
	d="
M555.073730,49.995117 
	C562.815552,61.175270 565.567993,73.747414 567.125305,86.474770 
	C571.660767,123.540474 568.883301,160.183151 559.667053,196.364868 
	C557.552856,204.664825 554.263367,212.474930 550.242737,219.965912 
	C536.362244,245.827133 531.811890,273.343994 533.895630,302.493073 
	C534.909912,316.681488 536.340027,331.216827 532.173584,345.226196 
	C525.085205,369.060638 510.356995,386.081116 486.465637,394.363586 
	C480.614258,396.392120 474.350586,396.393463 468.273346,397.303955 
	C464.128448,397.924957 461.273438,399.853577 459.973145,404.104706 
	C456.002441,417.086304 448.682617,428.163177 439.914764,438.344116 
	C427.553772,452.697296 414.365540,453.182434 401.745209,439.196808 
	C392.886658,429.379852 385.625732,418.360352 381.547424,405.596802 
	C379.881134,400.381958 376.860229,397.477112 371.205444,397.179657 
	C347.334320,395.923920 329.660217,384.127228 317.124359,364.355438 
	C310.429260,353.795776 306.587402,342.104645 306.658722,329.412323 
	C306.721375,318.256378 306.857941,307.113831 307.418396,295.951508 
	C308.665100,271.122620 304.945984,246.995789 293.052704,224.875900 
	C282.108948,204.521988 277.206055,182.691071 274.544678,160.052338 
	C272.695770,144.324570 271.304260,128.577393 271.849030,112.753937 
	C272.433167,95.787216 273.712158,78.864975 279.452301,62.650509 
	C281.074493,58.068150 283.272308,53.809914 286.116974,49.850986 
	C289.186188,45.579556 293.319366,43.053055 298.317810,41.712502 
	C304.059753,40.172520 309.927765,40.153343 315.669403,41.065819 
	C328.045197,43.032616 334.423767,50.591583 337.291656,65.767349 
	C340.961182,85.185219 343.900085,104.753632 349.264832,123.823410 
	C350.846039,129.443939 352.527985,135.029449 355.509583,140.093201 
	C358.719574,145.544891 361.365204,146.558151 367.591125,145.068253 
	C372.435364,143.909012 377.198547,142.522171 382.305450,142.619095 
	C394.793457,142.856064 401.448273,147.842194 402.035187,160.317917 
	C403.633240,194.289352 400.635468,227.831070 389.151733,260.147491 
	C380.567871,284.303467 363.703583,299.886749 339.121857,307.142944 
	C335.770081,308.132355 332.440643,309.200195 329.116608,310.280121 
	C322.854736,312.314514 320.712097,314.851410 320.444580,321.496216 
	C319.439880,346.452179 329.880371,365.258850 351.375854,377.833588 
	C361.719086,383.884247 372.663879,383.159546 383.773132,380.050720 
	C391.441223,377.904938 398.858490,374.656738 406.994110,374.413574 
	C407.324799,374.403687 407.672150,374.223480 407.980072,374.283905 
	C423.569336,377.343414 439.421448,373.596497 455.340424,379.023499 
	C484.877777,389.093109 515.538635,367.740387 519.683716,336.473175 
	C520.275085,332.012329 520.870239,327.580688 520.667114,323.061920 
	C520.284790,314.554565 518.646912,312.406250 510.518860,309.866974 
	C506.231445,308.527557 501.977417,307.081818 497.702332,305.702545 
	C474.744568,298.295624 460.169464,282.375580 451.835327,260.262817 
	C445.575226,243.653122 442.610291,226.310043 440.591980,208.738586 
	C439.299072,197.482590 438.796570,186.187729 438.225006,174.897491 
	C437.888824,168.257095 438.325531,161.566025 439.907867,155.066437 
	C441.846252,147.104141 447.102631,143.203018 455.976990,142.696869 
	C461.181335,142.400024 466.250732,143.034225 471.276947,144.432587 
	C480.222290,146.921341 483.482056,145.402084 487.251923,136.664886 
	C491.223053,127.461288 493.618896,117.746300 495.628967,107.964783 
	C498.872864,92.179131 501.703796,76.306999 505.076172,60.549942 
	C507.336884,49.987038 513.651367,42.858463 524.746216,41.281696 
	C535.907654,39.695465 546.844421,39.678402 555.073730,49.995117 
M329.659454,140.658447 
	C329.342102,138.021240 329.011719,135.385544 328.709564,132.746597 
	C326.878021,116.749954 325.016296,100.751953 321.563416,85.005760 
	C320.315643,79.315598 318.682251,73.654938 314.443268,69.289261 
	C310.729492,65.464470 307.062500,65.348320 303.003143,68.797577 
	C300.952545,70.539978 299.395844,72.678009 298.036438,75.001114 
	C293.305298,83.086227 291.044373,91.998131 290.474365,101.152191 
	C288.748413,128.870773 293.606934,155.464523 305.471893,180.654877 
	C308.525391,187.137711 311.897644,193.525848 317.447021,198.300110 
	C322.083252,202.288773 325.992218,201.440475 328.623901,195.929047 
	C330.800293,191.371078 331.481354,186.403900 331.652893,181.393066 
	C332.109222,168.066360 331.346893,154.796021 329.659454,140.658447 
M518.480347,88.959267 
	C515.539368,105.307838 513.466125,121.780525 511.596832,138.276047 
	C509.910675,153.155334 508.595123,168.075623 509.410370,183.073746 
	C509.635101,187.208084 510.407379,191.340454 512.011292,195.202866 
	C514.625061,201.497177 518.447205,202.409073 523.570740,198.043167 
	C526.641785,195.426285 529.097168,192.278061 531.079529,188.774200 
	C546.617798,161.309967 552.367920,131.607864 550.449463,100.401115 
	C549.838257,90.459862 547.448547,80.587868 541.243713,72.300385 
	C534.869751,63.787170 528.091370,64.505264 523.300720,73.955635 
	C521.020386,78.454071 519.861206,83.296127 518.480347,88.959267 
M364.989075,254.539139 
	C364.229370,253.898712 363.527710,253.168793 362.700684,252.632126 
	C356.532074,248.629395 349.457764,249.854965 345.023895,255.655212 
	C340.523743,261.542084 341.295044,270.147125 346.764709,275.077118 
	C352.115570,279.900024 359.357147,279.679688 364.672180,274.532288 
	C369.850708,269.516998 370.166748,262.016479 364.989075,254.539139 
M475.094757,255.693878 
	C474.373596,256.993774 473.484344,258.229614 472.960175,259.604614 
	C470.579895,265.848663 473.396912,273.534821 479.184357,276.850494 
	C484.480286,279.884552 491.080963,278.658844 495.377991,273.843384 
	C500.285858,268.343353 500.079224,259.644806 494.916748,254.426727 
	C489.355011,248.805130 482.703217,249.044296 475.094757,255.693878 
z"/>
<path fill="#000000" opacity="1.000000" stroke="none" 
	d="
M379.056519,482.387939 
	C379.334351,480.642731 379.506683,479.324646 379.699890,478.009613 
	C380.499725,472.564026 384.372040,469.360016 389.705750,469.723053 
	C394.774353,470.068024 398.502167,473.643311 398.218475,478.925171 
	C397.827118,486.211273 396.787903,493.464783 395.955536,500.724152 
	C395.406952,505.508911 394.969208,510.323883 394.075562,515.048523 
	C390.367981,534.650696 376.583679,540.801147 357.951599,537.784790 
	C341.800720,535.170166 333.279144,525.840271 332.981293,511.305939 
	C332.863251,505.545288 334.037628,499.747772 334.752594,493.983032 
	C335.631439,486.896759 336.524780,479.808228 337.638367,472.756409 
	C338.552734,466.965942 342.482117,464.120819 348.184418,464.725250 
	C353.261780,465.263428 356.693939,469.423431 356.126251,474.964691 
	C355.212067,483.888397 353.980377,492.779266 352.920563,501.688507 
	C352.626587,504.159882 352.304840,506.645172 352.274567,509.127472 
	C352.181274,516.774536 356.006104,520.861755 363.633331,521.464355 
	C369.550110,521.931824 374.553406,517.774475 375.519257,511.011414 
	C376.857513,501.640381 377.830933,492.217255 379.056519,482.387939 
z"/>
<path fill="#000000" opacity="1.000000" stroke="none" 
	d="
M518.834351,503.497864 
	C514.319092,512.352051 506.917175,516.135071 497.834473,517.313232 
	C497.341370,517.377136 496.836914,517.347900 496.340546,517.393005 
	C485.600067,518.369507 485.600098,518.370361 486.967163,529.058960 
	C487.642456,534.338806 484.147064,539.236450 479.106903,540.072327 
	C474.381226,540.856018 469.417419,537.620056 468.571472,532.379578 
	C467.013306,522.726868 465.961853,512.991943 464.723267,503.288177 
	C463.820282,496.213593 463.046661,489.121246 462.049011,482.060333 
	C461.046112,474.962524 464.333252,470.559662 471.518829,469.649170 
	C477.606415,468.877838 483.707520,468.185608 489.769470,467.244537 
	C512.679443,463.687836 527.073730,481.331451 518.834351,503.497864 
M494.081940,484.017242 
	C492.756134,484.088013 491.429352,484.143616 490.104706,484.232025 
	C482.001617,484.772705 481.574066,485.267212 482.386627,493.107300 
	C483.337524,502.282013 483.327087,502.204529 493.829742,500.789032 
	C498.330597,500.182404 501.348328,498.291687 501.706696,493.435913 
	C502.082947,488.337677 500.031494,485.541504 494.081940,484.017242 
z"/>
<path fill="#000000" opacity="1.000000" stroke="none" 
	d="
M304.601593,508.783234 
	C300.617004,507.869812 296.983276,507.287292 293.514679,506.185089 
	C289.814423,505.009247 288.245972,506.620026 287.462463,509.876190 
	C287.034943,511.652893 286.664520,513.447632 286.141510,515.196350 
	C284.492401,520.710510 280.168335,523.325439 274.697418,522.184998 
	C269.719696,521.147339 266.620026,516.359314 267.900330,510.647675 
	C270.114990,500.767365 272.744629,490.980255 275.182648,481.149719 
	C276.740967,474.866119 278.283325,468.578491 279.804474,462.285767 
	C281.488342,455.319946 285.681396,452.412903 292.637024,453.966858 
	C300.250244,455.667725 307.844452,457.529205 315.323486,459.738556 
	C328.381165,463.595825 335.316406,474.944794 332.734314,487.657074 
	C329.721619,502.489166 319.402557,510.394745 304.601593,508.783234 
M313.364197,479.501434 
	C312.504547,478.501190 311.837616,477.125916 310.750946,476.567352 
	C306.634796,474.451691 301.721832,471.342865 297.746277,474.105133 
	C294.045074,476.676819 293.623871,482.468750 293.701996,486.975372 
	C293.766785,490.711548 298.242096,490.075226 300.926361,490.738281 
	C310.253662,493.042297 314.159821,489.708008 313.364197,479.501434 
z"/>
<path fill="#000000" opacity="1.000000" stroke="none" 
	d="
M459.351868,501.007294 
	C456.136871,514.081299 448.467224,520.173218 434.577118,521.072388 
	C433.913818,521.115295 433.247223,521.107239 432.582153,521.122070 
	C422.477722,521.346924 422.477722,521.346863 422.013947,531.004089 
	C421.697754,537.588196 418.172180,541.345947 412.331604,541.324158 
	C406.516602,541.302429 402.996307,537.576599 402.849396,530.866516 
	C402.492676,514.576904 402.837830,498.279480 402.033905,481.990051 
	C401.667816,474.571991 405.492035,470.886627 412.878937,470.747406 
	C419.862122,470.615753 426.849121,470.659271 433.834381,470.668884 
	C451.734253,470.693451 462.250153,483.019775 459.351868,501.007294 
M440.275696,498.628845 
	C441.182343,494.589111 440.752075,490.740601 436.863831,488.623718 
	C432.444000,486.217407 426.814453,485.945129 422.978699,488.137543 
	C419.022247,490.398987 421.897369,496.064117 421.368774,500.193329 
	C421.164490,501.789307 421.192505,503.542053 423.146881,504.416687 
	C427.903412,506.545258 437.025421,503.816162 440.275696,498.628845 
z"/>
<path fill="#000000" opacity="1.000000" stroke="none" 
	d="
M397.402161,358.474243 
	C394.059845,353.228088 391.159210,348.251648 391.429535,342.019073 
	C391.668304,336.513855 393.864166,332.152832 398.850647,329.944550 
	C412.763428,323.783386 427.044464,323.661377 440.997437,329.430023 
	C448.952087,332.718750 451.575165,340.275543 448.639160,348.712219 
	C445.078003,358.945221 438.240906,366.407867 428.415710,371.030975 
	C422.772003,373.686554 417.186615,373.365479 411.614532,370.581390 
	C405.973419,367.762787 401.451721,363.690186 397.402161,358.474243 
z"/>
<path fill="#000000" opacity="1.000000" stroke="none" 
	d="
M564.012817,452.695312 
	C571.688049,452.451263 574.996887,459.993011 572.607849,466.370178 
	C569.340393,475.092224 566.263550,483.887939 562.852478,492.552673 
	C561.757996,495.333130 561.525757,497.832031 562.284668,500.709351 
	C563.639099,505.843872 564.761230,511.047211 565.776245,516.261597 
	C566.762512,521.328186 563.534302,526.009644 558.552246,527.106018 
	C553.852295,528.140320 548.177979,525.423340 547.872681,520.568237 
	C546.701660,501.943390 533.967346,491.281525 521.445190,480.329163 
	C518.206238,477.496216 515.434021,474.335846 516.036377,469.699585 
	C516.486145,466.237518 518.214417,463.300385 521.797852,462.195068 
	C525.475037,461.060791 529.083191,461.239471 532.024170,464.159027 
	C536.276550,468.380554 540.463013,472.668488 544.697510,476.908203 
	C545.392822,477.604370 546.104675,478.359589 547.843323,478.238007 
	C551.090332,472.956665 552.493164,466.595917 554.550110,460.561096 
	C556.119812,455.955688 558.542664,452.989624 564.012817,452.695312 
z"/>
<path fill="#000000" opacity="1.000000" stroke="none" 
	d="
M485.066925,351.271362 
	C485.370697,354.938019 483.805756,357.146973 480.798828,358.077362 
	C478.441956,358.806610 476.117371,358.310394 474.585327,356.128876 
	C472.433899,353.065399 472.768280,350.124603 475.669464,347.782898 
	C478.630615,345.392822 482.276062,346.692932 485.066925,351.271362 
z"/>
<path fill="#000000" opacity="1.000000" stroke="none" 
	d="
M356.560486,349.755432 
	C359.183990,346.267944 362.220917,345.644867 365.419647,347.875580 
	C367.871338,349.585419 368.302704,352.280792 367.128510,354.985504 
	C365.897980,357.819946 363.391022,358.895172 360.578705,358.109467 
	C356.602509,356.998566 355.026001,354.224304 356.560486,349.755432 
z"/>
<path fill="#000000" opacity="1.000000" stroke="none" 
	d="
M463.961243,334.895020 
	C467.456146,335.542694 469.110596,337.308777 468.217072,340.567780 
	C467.589417,342.857056 465.704559,343.522003 463.502533,343.272858 
	C461.623108,343.060211 460.430176,341.837738 460.105957,340.094879 
	C459.599426,337.372070 460.978516,335.680115 463.961243,334.895020 
z"/>
<path fill="#000000" opacity="1.000000" stroke="none" 
	d="
M377.674866,335.135284 
	C380.552490,336.571411 381.962616,338.458008 380.564728,341.284851 
	C379.403809,343.632446 377.176025,343.892181 375.007050,343.072845 
	C372.782593,342.232544 372.382782,340.174957 372.851105,338.092743 
	C373.360413,335.828247 375.046143,334.935486 377.674866,335.135284 
z"/>
<path fill="#000000" opacity="1.000000" stroke="none" 
	d="
M458.382935,352.077087 
	C461.111359,352.412140 461.764771,353.865112 460.776550,355.865265 
	C460.085297,357.264313 458.632721,357.457916 457.484314,356.450745 
	C455.714630,354.898773 456.045471,353.369263 458.382935,352.077087 
z"/>
<path fill="#000000" opacity="1.000000" stroke="none" 
	d="
M380.534119,356.255737 
	C379.448456,353.970032 379.716553,352.336975 382.156586,352.084991 
	C383.633789,351.932465 384.746246,353.101624 384.602814,354.511047 
	C384.376038,356.740051 382.974030,357.542725 380.534119,356.255737 
z"/>
</svg>