<svg version="1.1" id="Layer_1" xmlns="http://www.w3.org/2000/svg" xmlns:xlink="http://www.w3.org/1999/xlink" x="0px" y="0px"
	 width="100%" viewBox="0 0 640 640" enable-background="new 0 0 640 640" xml:space="preserve">
<path fill="#000000" opacity="1.000000" stroke="none" 
	d="
M213.006927,245.015717 
	C210.494705,245.637054 209.807983,244.096283 209.430420,242.072861 
	C208.516220,237.173477 207.230865,232.333954 208.345581,227.253372 
	C208.835449,225.020721 209.172653,222.675385 208.324600,220.379974 
	C206.312180,219.260406 203.952072,221.312119 202.101501,219.586273 
	C203.783478,213.471207 207.021927,212.502930 217.949432,215.081543 
	C218.579620,210.696274 220.903900,207.229385 224.128510,204.234131 
	C225.894852,202.593445 226.157303,200.423157 224.853622,198.297180 
	C223.570999,196.205536 223.613419,194.329681 225.094238,192.302277 
	C242.023224,169.124634 262.175934,149.971558 289.859406,140.154144 
	C299.308105,136.803329 308.986938,134.411392 318.925385,133.083557 
	C319.901306,132.953186 320.916412,132.720917 322.682343,134.580078 
	C291.501984,143.232086 267.250427,160.249084 252.954865,189.590027 
	C274.981750,160.720383 302.676544,140.918640 339.501617,134.371338 
	C339.028259,136.569458 337.875885,136.729965 337.014954,136.986053 
	C306.082397,146.186661 284.740723,167.273361 267.433685,193.265488 
	C261.511108,202.160187 257.458618,212.097885 252.506912,221.535324 
	C244.765793,236.289108 233.627899,247.186386 217.620300,252.693939 
	C214.475479,253.775925 211.427017,255.148254 208.364868,256.458557 
	C190.984406,263.895782 174.680969,273.237579 159.422424,284.384155 
	C157.399643,285.861847 155.378387,286.496277 152.926270,286.281433 
	C149.649475,285.994354 146.351715,285.662842 142.857574,286.542969 
	C145.042114,288.507446 148.081146,287.839905 150.232269,289.500793 
	C149.252380,291.859039 147.168930,291.203430 145.521088,291.269592 
	C141.313156,291.438538 137.232422,292.274567 133.309631,293.664703 
	C130.094238,294.804138 130.011505,296.856567 132.862259,298.578796 
	C134.532227,299.587677 136.516861,300.308716 138.446106,300.613098 
	C145.092804,301.661804 151.348450,303.655823 157.329758,306.807404 
	C160.557617,308.508179 164.159866,309.510986 167.856796,307.523224 
	C172.152008,305.213745 172.468048,303.073792 168.514114,300.222809 
	C165.686081,298.183624 162.579773,296.529724 159.592789,294.711914 
	C158.344894,293.952454 156.738998,293.667297 155.971893,291.714081 
	C158.182632,288.289246 161.403564,287.605408 165.244919,288.694763 
	C165.867310,288.871246 166.418381,289.309204 166.993073,289.642456 
	C180.944382,297.731842 181.691299,300.120514 175.670761,315.253967 
	C171.224625,326.429962 164.792679,335.852936 153.716324,341.417267 
	C150.643646,342.960846 151.033997,344.846954 153.187073,346.836243 
	C154.036484,347.621033 155.005814,348.318878 156.019394,348.876678 
	C170.766418,356.991943 185.639359,364.918793 201.565414,370.467651 
	C221.888596,377.548492 240.974075,372.489899 259.439148,363.449402 
	C267.825470,359.343506 276.141479,355.102966 285.400970,353.241760 
	C288.324860,352.654053 291.253448,352.157684 294.987000,353.758575 
	C289.544495,364.435028 281.138458,371.351685 269.523987,376.462097 
	C275.908875,377.332092 280.136261,375.084473 284.231842,372.639832 
	C287.942780,370.424805 292.645569,369.094147 295.481110,366.544464 
	C300.708160,361.844360 307.727478,361.214447 312.854706,356.710724 
	C320.731750,349.791504 320.393433,340.699890 311.228577,335.361786 
	C301.027802,329.420319 289.724182,328.880463 278.271881,329.722534 
	C270.440887,330.298340 262.819031,332.119507 255.149734,333.652191 
	C253.705994,333.940735 252.281631,334.650421 250.743484,333.639526 
	C250.957321,331.113281 253.286514,331.370667 254.769882,330.793427 
	C261.627136,328.124939 268.296814,325.135773 274.241333,320.717621 
	C285.254425,312.532349 288.105194,303.914062 283.593140,291.082153 
	C281.734222,285.795471 279.200348,280.746124 276.585571,274.690491 
	C280.049713,275.955444 281.255768,278.427734 282.756226,280.312164 
	C289.977509,289.381317 298.364868,297.135681 307.847565,303.791473 
	C318.256500,311.097473 326.014496,320.319489 328.713867,333.203766 
	C329.839813,338.577881 328.603210,343.710358 327.563538,349.531708 
	C331.701477,347.636841 332.651917,344.111420 333.723907,341.079620 
	C337.170410,331.332245 338.030365,321.184418 336.255066,311.037048 
	C334.718567,302.254456 329.472565,295.511353 322.297180,290.435974 
	C313.868134,284.473816 305.147461,278.924347 296.708221,272.976105 
	C290.176575,268.372406 285.175751,262.500092 283.084869,254.590622 
	C284.608978,253.323471 285.449554,254.563080 286.328552,255.110489 
	C300.119080,263.698334 315.572632,261.606781 326.510193,249.623718 
	C327.295624,248.763199 328.137207,247.913498 328.732574,246.926041 
	C336.759430,233.612549 349.671295,229.926605 363.997040,228.618362 
	C373.486420,227.751770 382.924133,227.211563 392.389648,228.613617 
	C393.329895,228.752899 394.380035,228.633392 395.197327,229.917831 
	C392.333191,232.052795 388.882263,231.598923 385.791809,232.238342 
	C374.852936,234.501678 364.582367,238.093994 356.455505,246.186966 
	C342.384460,260.199341 343.622620,277.438782 359.515350,289.428772 
	C377.175537,302.752167 398.186340,303.153046 416.117737,290.324188 
	C420.032318,287.523560 423.568146,284.192841 427.271942,281.098511 
	C429.049805,279.613190 429.431091,278.070831 428.105743,275.898865 
	C417.868164,259.121429 414.899597,240.126373 411.831512,221.217056 
	C411.168213,217.129089 409.494415,214.202423 406.465515,211.518555 
	C392.643707,199.271378 381.212982,185.369492 377.100800,166.755234 
	C375.756805,160.671555 374.866394,154.506622 376.966187,148.155991 
	C380.008759,156.028152 382.662537,163.995956 387.450134,170.926102 
	C392.252594,177.877838 397.210724,184.722015 404.971405,189.974609 
	C404.992493,187.072021 403.618622,185.563629 402.541229,184.023651 
	C394.330719,172.288010 388.224152,159.627274 385.397552,145.502884 
	C384.703369,142.034058 383.089081,140.177551 379.100067,139.859085 
	C374.617249,139.501221 369.822205,139.266235 365.524933,135.785156 
	C375.033600,123.180809 382.425842,109.103767 395.353271,99.739182 
	C405.898499,92.100273 419.486908,94.678123 427.077667,105.288116 
	C438.967651,121.907433 442.275604,140.454819 438.911102,160.396103 
	C438.565765,162.442871 437.657867,164.509674 439.526733,167.769150 
	C446.180939,150.422287 444.571655,133.985306 440.115204,117.641243 
	C441.654602,117.207191 442.341309,117.694847 442.952637,118.262779 
	C464.229218,138.029312 489.424011,152.260956 513.476868,168.092224 
	C526.425903,176.615067 529.080627,183.461731 523.731873,197.957336 
	C519.063477,210.608978 511.023010,221.346954 503.230713,232.142685 
	C492.411011,247.132706 481.289154,261.905487 470.205383,276.702881 
	C468.909973,278.432312 469.133972,279.688354 469.721283,281.643768 
	C475.087891,299.510681 482.915527,316.543549 487.621277,334.626190 
	C493.829254,358.481384 495.409851,382.507599 490.291870,406.787262 
	C489.626312,409.944885 489.508179,410.404358 486.867737,413.295258 
	C491.897064,391.004822 492.310974,368.894257 485.839722,346.793579 
	C479.418488,324.863800 465.675232,307.387878 450.892578,289.704315 
	C445.097168,290.067780 445.097168,290.067780 431.189911,282.077271 
	C430.909851,282.441284 430.498962,282.774506 430.348236,283.199890 
	C421.020752,309.527191 401.048462,323.071503 374.984528,329.234344 
	C365.114014,331.568237 355.054688,333.186279 345.656708,337.232056 
	C344.618896,337.678833 343.666229,338.323334 342.795654,339.193878 
	C366.487457,336.303650 390.341614,334.075500 410.976929,318.384430 
	C411.048096,322.167511 409.018341,323.683563 407.509399,325.389923 
	C390.922974,344.146118 369.497131,353.500854 345.242584,357.290283 
	C341.956573,357.803711 338.632019,358.071533 335.324615,358.446716 
	C330.061035,359.043823 324.831177,359.377441 320.556641,363.377075 
	C318.389404,365.404999 315.173950,365.999268 312.150146,366.186493 
	C309.356354,366.359467 306.543427,366.223297 302.230164,366.223297 
	C307.656036,369.815704 311.998688,372.354889 315.626068,375.923401 
	C335.307098,395.285248 339.759491,418.060150 331.010712,443.789124 
	C326.337433,457.532776 317.914337,469.207001 309.840973,481.040955 
	C301.340607,493.500793 293.832184,506.383301 290.957214,521.477844 
	C289.713623,528.007080 290.176971,534.382263 291.917023,540.731262 
	C292.296906,542.117310 292.600403,543.524231 293.024414,545.273682 
	C290.214386,545.059814 289.925568,542.994812 289.167358,541.559265 
	C278.422028,521.214966 280.683228,501.075836 290.333099,481.137604 
	C294.540924,472.443665 299.152039,463.953613 302.356689,454.789337 
	C310.241608,432.240875 303.041534,406.552185 284.490173,391.555267 
	C283.203491,390.515167 281.930115,389.432281 279.657379,388.981812 
	C279.906586,391.667236 281.564636,393.285858 282.765533,395.079834 
	C292.061310,408.966156 297.635590,423.961761 297.445221,440.958435 
	C297.298950,454.015289 292.905365,465.372467 285.167297,475.633118 
	C281.253815,480.822418 277.310364,485.980804 274.258759,491.757843 
	C269.500671,500.765320 266.063782,510.011597 268.634979,520.716675 
	C256.795410,512.007019 251.148605,499.885529 250.064850,485.981415 
	C248.951569,471.698120 256.535553,460.189941 265.230194,448.445282 
	C251.328110,456.508118 237.943939,463.347107 222.211105,460.013763 
	C222.087219,459.549286 221.963333,459.084778 221.839447,458.620270 
	C225.200256,457.571472 228.704666,456.844147 231.897110,455.418365 
	C245.989212,449.124695 255.460403,438.304688 261.488525,424.311432 
	C266.309631,413.120026 268.405884,401.435913 267.765350,389.226471 
	C267.583740,385.764679 267.108398,383.750458 262.776276,383.793640 
	C257.213226,383.849060 251.975494,381.757568 247.247437,378.828094 
	C244.332596,377.022064 241.565750,376.694977 238.260788,377.570282 
	C216.453674,383.345703 195.380432,382.209564 175.518311,370.499664 
	C171.887497,368.359039 168.057938,367.767365 163.991211,369.142639 
	C163.048264,369.461578 162.058136,369.648529 161.081924,369.860291 
	C149.133850,372.452271 142.896347,365.746704 146.314438,353.990570 
	C146.824646,352.235779 147.623596,350.505920 147.779709,348.720001 
	C148.066376,345.440704 147.105453,342.532654 143.273178,342.162872 
	C132.789230,341.151276 129.538712,333.069061 125.772430,325.118286 
	C123.981529,321.337555 123.109932,317.115784 120.276611,313.781952 
	C113.642418,305.975830 114.136559,301.345490 122.587440,295.163666 
	C136.880173,284.708496 152.306778,276.071564 168.009109,267.975586 
	C180.295120,261.641022 192.864044,255.855698 205.295288,249.801758 
	C207.830566,248.567093 210.487274,247.520920 213.118011,245.159485 
	C225.685898,239.407135 230.411850,228.122482 235.801971,217.372314 
	C229.356140,227.538452 219.791656,235.131226 213.006927,245.015717 
M419.997955,198.556732 
	C419.918365,209.478333 419.802338,220.404083 423.622192,230.897003 
	C422.659668,212.609512 425.754150,194.307724 423.329193,174.679459 
	C421.084961,183.066895 420.336578,190.290253 419.997955,198.556732 
z"/>
<path fill="#000000" opacity="1.000000" stroke="none" 
	d="
M242.863602,164.861816 
	C232.933792,174.277725 224.804581,184.786179 216.701584,195.648651 
	C215.055389,193.830185 216.275681,192.580460 216.717865,191.323578 
	C221.376053,178.082596 225.126984,164.670578 224.872879,150.441147 
	C224.765503,144.429581 224.827240,138.417496 220.893951,132.675156 
	C228.441711,128.349808 235.715073,127.524345 243.489975,130.451828 
	C252.254974,133.752106 253.197800,141.974075 255.457779,149.681503 
	C258.282715,140.331680 253.269348,130.868271 244.441376,128.370605 
	C236.906158,126.238686 229.633362,127.046967 222.552399,130.301102 
	C215.337677,133.616699 209.205551,138.397003 203.572433,143.917633 
	C200.244476,147.179138 196.870636,150.406296 193.347839,153.452774 
	C190.310532,156.079407 186.868210,158.172226 182.969330,159.298584 
	C179.472244,160.308853 175.392517,162.004562 172.737869,158.565857 
	C170.074753,155.116119 171.709091,150.885590 174.072556,147.884674 
	C185.632584,133.206818 197.736923,118.916908 213.074539,108.018852 
	C225.431900,99.238380 238.894699,98.418785 252.904160,104.530266 
	C268.254639,111.226761 278.884613,123.139099 289.921448,136.446671 
	C272.305054,143.552185 256.361755,151.931076 242.863602,164.861816 
z"/>
<path fill="#000000" opacity="1.000000" stroke="none" 
	d="
M421.873383,329.748535 
	C413.136780,352.209137 399.945221,371.580383 385.982208,390.506744 
	C375.263214,405.035950 366.497711,420.685699 359.422943,437.296844 
	C356.400757,444.392639 354.592590,451.791412 353.505096,459.391510 
	C353.267761,461.050079 353.147827,462.798798 352.054657,464.107971 
	C343.958801,473.803436 336.443176,484.055725 326.059601,491.584442 
	C325.687225,491.854401 325.162506,491.914276 324.761993,492.053589 
	C323.755035,491.362885 324.064301,490.573578 324.407593,489.819641 
	C331.343781,474.587952 335.450439,458.491364 339.228638,442.262329 
	C344.719330,418.677643 356.817352,398.606812 372.653687,380.571381 
	C383.854218,367.815460 396.602661,356.477356 406.946899,342.937225 
	C413.027802,334.977600 418.373871,326.571014 422.985657,317.684113 
	C423.476593,316.738068 423.602051,315.320953 425.693848,315.268127 
	C425.690826,320.349792 423.561890,324.804626 421.873383,329.748535 
z"/>
<path fill="#000000" opacity="1.000000" stroke="none" 
	d="
M319.546143,237.689941 
	C312.448669,242.271179 305.208862,243.705444 297.301239,241.494110 
	C286.910553,238.588364 280.631866,240.914520 274.481720,249.769760 
	C273.549622,251.111832 272.901123,252.690140 271.364685,253.550095 
	C267.335724,247.530624 268.332336,241.782059 274.266907,237.677582 
	C278.724548,234.594589 282.785370,231.300446 284.299011,225.780090 
	C273.774323,221.429153 268.956970,203.457062 275.820221,194.515686 
	C280.143158,188.883804 287.720123,187.099792 294.236908,190.179474 
	C299.677887,192.750748 300.808502,196.300156 297.823425,201.474152 
	C296.841125,203.176758 295.834198,204.865189 294.647858,206.884674 
	C298.526855,208.686783 302.489594,205.057465 306.421173,208.247330 
	C303.117401,209.437042 300.302429,210.450729 296.694244,211.750046 
	C313.225769,210.866867 324.466827,221.342133 337.782013,227.388672 
	C329.527130,227.141037 325.731659,234.126266 319.546143,237.689941 
M311.245758,222.998459 
	C312.452393,221.845230 312.659637,220.622025 311.018524,219.825424 
	C309.166565,218.926483 307.164581,218.744995 305.350067,220.019501 
	C304.455566,220.647781 304.125427,221.636871 304.660980,222.651337 
	C305.450195,224.146286 306.775391,224.732880 308.415131,224.343628 
	C309.209747,224.154999 309.947571,223.726822 311.245758,222.998459 
z"/>
<path fill="#000000" opacity="1.000000" stroke="none" 
	d="
M387.808044,433.807556 
	C383.762451,437.873810 379.965820,441.689056 375.365143,446.312195 
	C375.193115,442.717926 376.750793,441.329712 377.765778,439.764648 
	C391.751312,418.199463 408.676666,398.896393 424.646149,378.855652 
	C438.529266,361.433258 448.857849,342.281647 453.162354,320.160461 
	C453.841827,316.668549 452.893219,312.840576 455.606750,308.571350 
	C456.933929,314.185730 456.431885,318.880066 455.944214,323.461945 
	C452.557678,355.280243 439.331848,382.407959 416.697449,404.983490 
	C407.149445,414.506653 397.603760,424.032104 387.808044,433.807556 
z"/>
<path fill="#000000" opacity="1.000000" stroke="none" 
	d="
M219.035568,257.423645 
	C219.995193,260.008942 217.673477,259.825684 216.486893,260.209473 
	C200.211655,265.473511 185.514633,273.776520 171.359848,283.201935 
	C169.045380,284.743103 166.830551,287.156952 163.172684,285.546906 
	C179.704895,272.300323 198.099533,262.676178 219.035568,257.423645 
z"/>
<path fill="#000000" opacity="1.000000" stroke="none" 
	d="
M223.127594,344.044128 
	C220.523163,343.785645 220.093689,342.333710 221.006531,340.623383 
	C221.719147,339.288269 223.284286,339.151123 224.339005,340.151337 
	C225.951797,341.680786 225.186020,343.014557 223.127594,344.044128 
z"/>
</svg>